<?xml version="1.0" encoding="UTF-8"?><svg id="Green" xmlns="http://www.w3.org/2000/svg" viewBox="0 0 1345.85 840.19"><defs><style>.cls-1{fill:#154734;stroke-width:0px;}</style></defs><path class="cls-1" d="M770.74,234.75v111.5c0,10.71,3.61,16.8,12.63,16.8s12.23-6.85,12.23-16.77v-111.52h23.34v111.06c0,23.13-10.78,37.67-36,37.67s-35.52-12.6-35.52-37.59v-111.14h23.31Z"/><path class="cls-1" d="M878.79,381.33l-26.45-146.58h25.19l8.04,59.64c2.62,19.74,5.89,40.48,7.25,57.34h.43c1.33-15.9,4.82-36.83,7.25-56.87l7.55-60.1h24.96l-25.76,146.58h-28.45Z"/><path class="cls-1" d="M1043.05,326.8c0-24.91.28-55.93.73-72.73h-.23c-3.48,25.44-11.84,84.81-18.38,127.26h-22c-4.88-38.08-13.32-100.65-16.77-127.45h-.45c.45,17.09,1.16,50.25,1.16,75.46v51.99h-21.12v-146.58h34.73c5.88,37.26,11.94,79.02,13.98,99.56h.23c2.46-20.8,10.65-64.41,16.71-99.56h33.56v146.58h-22.14v-54.53Z"/><path class="cls-1" d="M747.42,456.71h33.62c24.01,0,36.24,11.5,36.24,37.42v8.64c0,24.19-8.91,40.26-37.55,40.26h-9.01v60.26h-23.31v-146.58ZM770.74,524.56h6.39c14.54,0,17.02-8.23,17.02-22.54v-7.21c0-10.66-2-19.44-14.95-19.44h-8.46v49.18Z"/><path class="cls-1" d="M876.87,537.75v65.55h-23.31v-146.58h32.29c23,0,36.58,8.93,36.58,35.32v5.58c0,22.53-9.53,28.25-15.39,30.58,8.82,4.01,13.86,10.17,13.86,30.06,0,12.34-.23,36.15,1.38,45.04h-22.52c-2.01-8.86-1.58-32.93-1.58-43.58,0-17.87-2.37-21.97-15.9-21.97h-5.41ZM876.87,519.08h5.35c12.34,0,16.87-4.51,16.87-20.45v-5.03c0-11.33-2.42-18.23-15.63-18.23h-6.59v43.71Z"/><path class="cls-1" d="M1018.74,536.34h-33.23v46.17h38.3l-2.95,20.79h-58.66v-146.58h58.38v20.98h-35.07v37.85h33.23v20.79Z"/><path class="cls-1" d="M1078.05,560.15v9.06c0,10.91,3.37,16.98,12.24,16.98s11.44-8.35,11.44-17.87c0-15.75-3.5-20.64-19.71-33.05-16.27-12.45-24.96-20.42-24.96-42.11,0-19.32,6.03-38.82,33.31-38.79,27.9.03,32.21,19.31,32.21,35.22v7.83h-23.11v-7.22c0-10.21-1.77-16.38-9.52-16.38s-9.57,6.39-9.57,16.1c0,10.36,2.03,15.43,15.31,24.85,22.62,16.22,29.55,25.64,29.55,50.16,0,20.79-7.51,40.5-35.72,40.5s-34.78-17.28-34.78-36.59v-8.7h23.31Z"/><path class="cls-1" d="M1182.36,560.15v9.06c0,10.91,3.37,16.98,12.24,16.98s11.44-8.35,11.44-17.87c0-15.75-3.5-20.64-19.71-33.05-16.27-12.45-24.96-20.42-24.96-42.11,0-19.32,6.03-38.82,33.31-38.79,27.9.03,32.21,19.31,32.21,35.22v7.83h-23.11v-7.22c0-10.21-1.77-16.38-9.52-16.38s-9.57,6.39-9.57,16.1c0,10.36,2.03,15.43,15.31,24.85,22.62,16.22,29.55,25.64,29.55,50.16,0,20.79-7.51,40.5-35.72,40.5s-34.78-17.28-34.78-36.59v-8.7h23.31Z"/><path class="cls-1" d="M466.53,739.68c30.02-12.8,56.98-31.12,80.12-54.45,23.13-23.31,41.29-50.46,53.97-80.69,13.13-31.28,19.78-64.51,19.78-98.75v-171.4c0-34.24-6.66-67.47-19.78-98.75-12.68-30.23-30.84-57.37-53.97-80.69-23.14-23.33-50.1-41.65-80.12-54.45-31.1-13.26-64.13-19.98-98.18-19.98s-67.08,6.72-98.18,19.98c-30.02,12.8-56.98,31.12-80.12,54.45-23.13,23.31-41.29,50.46-53.97,80.69-13.13,31.28-19.78,64.51-19.78,98.75v171.4c0,34.24,6.66,67.47,19.78,98.75,12.68,30.23,30.84,57.37,53.97,80.69,23.14,23.33,50.1,41.65,80.12,54.45,31.1,13.26,64.13,19.98,98.18,19.98s67.08-6.72,98.18-19.98ZM463.39,107.87c29.07,12.39,55.17,30.13,77.58,52.72,22.4,22.58,39.99,48.88,52.27,78.15,12.71,30.3,19.16,62.48,19.16,95.66v171.4c0,33.17-6.45,65.36-19.16,95.66-12.28,29.27-29.87,55.57-52.27,78.15-22.41,22.59-48.51,40.33-77.58,52.72-30.1,12.83-62.08,19.34-95.04,19.34s-64.94-6.51-95.04-19.34c-29.07-12.39-55.17-30.13-77.58-52.72-22.4-22.58-39.99-48.88-52.27-78.15-12.71-30.3-19.16-62.48-19.16-95.66v-171.4c0-33.18,6.45-65.36,19.16-95.66,12.28-29.27,29.87-55.57,52.27-78.15,22.41-22.59,48.51-40.33,77.58-52.72,30.1-12.83,62.08-19.34,95.04-19.34s64.94,6.51,95.04,19.34ZM353.99,733.66c0-1.91.38-3.74,1.07-5.41-25.15-1.49-49.56-7.21-72.72-17.09-26.32-11.22-49.96-27.29-70.27-47.76-20.31-20.48-36.26-44.31-47.39-70.85-11.52-27.46-17.37-56.65-17.37-86.76v-171.4c0-30.1,5.84-59.29,17.37-86.76,11.13-26.54,27.08-50.38,47.39-70.85,20.31-20.47,43.95-36.54,70.27-47.76,23.17-9.88,47.58-15.6,72.72-17.09-.68-1.67-1.07-3.5-1.07-5.41,0-1.61.28-3.15.77-4.59-26.4,1.53-52.02,7.52-76.35,17.89-27.51,11.73-52.22,28.53-73.45,49.92-21.22,21.39-37.88,46.3-49.51,74.02-12.04,28.7-18.15,59.19-18.15,90.62v171.4c0,31.44,6.11,61.93,18.15,90.63,11.63,27.73,28.29,52.63,49.51,74.02,21.22,21.39,45.93,38.19,73.45,49.92,24.32,10.37,49.95,16.36,76.35,17.89-.49-1.44-.77-2.98-.77-4.59ZM581.25,243.77c-11.63-27.73-28.29-52.63-49.51-74.02-21.22-21.39-45.93-38.19-73.45-49.92-24.32-10.37-49.95-16.36-76.34-17.89.49,1.44.77,2.98.77,4.59,0,1.91-.38,3.74-1.07,5.41,25.15,1.49,49.56,7.21,72.72,17.09,26.32,11.22,49.96,27.29,70.27,47.76,20.31,20.48,36.26,44.31,47.39,70.85,11.52,27.47,17.37,56.65,17.37,86.76v171.4c0,30.1-5.84,59.29-17.37,86.76-11.13,26.54-27.08,50.37-47.39,70.85-20.31,20.47-43.95,36.54-70.27,47.76-23.17,9.88-47.57,15.6-72.72,17.09.68,1.67,1.07,3.5,1.07,5.41,0,1.61-.28,3.15-.77,4.59,26.4-1.53,52.02-7.52,76.34-17.89,27.51-11.73,52.23-28.53,73.45-49.92,21.22-21.39,37.88-46.3,49.51-74.02,12.04-28.7,18.15-59.19,18.15-90.63v-171.4c0-31.44-6.11-61.93-18.15-90.63ZM368.35,97.52c-4.97,0-9,4.03-9,9s4.03,9,9,9,9-4.03,9-9-4.03-9-9-9ZM368.35,724.66c-4.97,0-9,4.03-9,9s4.03,9,9,9,9-4.03,9-9-4.03-9-9-9ZM412.84,225.2h-7.85v-54.49h12.91c2.19,13.85,4.44,29.37,5.2,37.01h.08c.92-7.73,3.96-23.94,6.21-37.01h12.48v54.49h-8.23v-20.27c0-9.26.1-20.79.27-27.04h-.08c-1.29,9.46-4.4,31.53-6.83,47.31h-8.18c-1.81-14.15-4.95-37.41-6.23-47.38h-.17c.17,6.35.43,18.68.43,28.05v19.33ZM298.49,212.03v-41.31h8.67v41.45c0,3.98,1.34,6.24,4.7,6.24s4.55-2.54,4.55-6.23v-41.46h8.68v41.29c0,8.6-4.01,14-13.38,14s-13.21-4.69-13.21-13.97ZM359.95,225.2l-9.83-54.49h9.36l2.99,22.17c.98,7.34,2.19,15.05,2.7,21.32h.16c.49-5.91,1.79-13.69,2.69-21.14l2.81-22.34h9.28l-9.58,54.49h-10.58ZM576.4,460.98h-148.32c2.8-2.98,5.11-6.01,7.02-8.97h141.3v-115.08s0,0,0,0v.22c-20.28-4.68-84.22-19.59-90.04-22.98-6.93-4.03-32.31-27.1-32.31-27.1,0,0-6.1-22.56-7.09-26.79-.99-4.23-12.94-5.96-27.4-6.55-14.46-.59-38.49,5-44.31,8.92-5.82,3.92-38.66,8.99-41.74,9.1-17.26.57-37.01,11.61-37.01,11.61l-58.81,32.82-58.38,20.03-19.02-1.13v116.93h116.15c-.38,3.07-.76,6.23-1.09,8.97h-115.07v7.71h113.94c-.6,1.92-1.7,5.25-3.26,9.7-5.12,2.26-8.37,5.05-10.3,8.74-2.62,5.01-2.52,11.06.16,16.96-2.76,1.28-5.32,2.64-7.87,3.99-9.12,4.84-17.74,9.42-35.33,9.42s-26.21-4.57-35.33-9.42c-6.33-3.36-12.82-6.79-22.02-8.8v6.51c0,1.27.02,2.54.05,3.8,6.83,1.79,11.98,4.5,17.28,7.32,9.8,5.2,19.94,10.58,40.02,10.58s30.22-5.38,40.02-10.58c3.22-1.71,6.39-3.38,9.91-4.84,1.48.86,3.1,1.48,4.82,1.79,1.02.18,10.21,1.77,18.53,1.77,1.99,0,3.83-.09,5.47-.27,6.87-.76,11.08-3.27,13.67-6.02,7.32,1.78,12.7,4.62,18.25,7.57,9.8,5.2,19.94,10.58,40.02,10.58s30.22-5.38,40.02-10.58c9.12-4.84,17.74-9.42,35.33-9.42s26.21,4.57,35.33,9.42c9.8,5.2,19.94,10.58,40.02,10.58s30.22-5.38,40.02-10.58c5.31-2.82,10.45-5.54,17.29-7.32.02-1.27.05-2.53.05-3.8v-6.82h0v.3c-9.21,2.01-15.69,5.45-22.02,8.81-9.12,4.84-17.74,9.42-35.33,9.42s-26.21-4.57-35.33-9.42c-9.8-5.2-19.94-10.58-40.02-10.58s-30.22,5.38-40.02,10.58c-9.12,4.84-17.74,9.42-35.33,9.42s-26.21-4.57-35.33-9.42c-5.53-2.94-11.17-5.93-18.63-7.98l5.04-22.05c2.01.63,4.29,1.06,6.77,1.06,4.87,0,9.4-1.68,13.1-4.87,1.8-1.55,3.63-3.53,5.3-5.56h37.32c3.36,3.92,8.13,6.18,13.34,6.22h.05s.13,0,.13,0c5.48,0,13.01-2.61,18.37-4.8.14-.06.28-.12.41-.18,1.57-.17,3.1-.6,4.53-1.25h157.66v-7.71ZM350.31,460.98c.42-.62.76-1.15,1-1.52,1.16-1.8,1.93-3.88,2.22-6.01.06-.48.1-.96.13-1.44h23.45c-.26,2.88-.08,5.96.75,8.97h-27.56ZM415.64,458.95c-1.2.99-2.74,1.29-4.14.94-.42.41-.92.74-1.5.97-2.34.96-10.26,4.06-14.59,4.06h-.08c-2.55-.02-4.79-1.2-6.3-3.32-2.52-3.53-2.4-8.85-1.17-12.57,1.67-5.04,6.42-8.9,6.95-9.33.49-.39,1.04-.67,1.64-.84,2.11-.61,5.78-2.23,6.9-3.74l.66-.89c1.58-2.12,4.23-5.66,3.96-7.34-.32-1.92-.56-3.66-.77-5.2-.52-3.77-.93-6.76-1.9-7.58-3.61-3.09-7.13-6.21-9.91-8.8-2.91-2.71-7.25-3.31-10.8-1.5-7.61,3.88-17.79,7.9-20.72,9.04-.5.19-.94.34-1.45.49l-9.4,2.79c-3.14,1.99-10.37,6.96-13.5,10.78-2.99,3.65-12.65,8.21-18.11,10.59-.49,1.19-1.13,3.03-1.39,5.03.68.18,1.7.3,2.52.27.57-.02,1.16.06,1.7.24.03,0,4.71,1.5,8.87.7,4.34-.84,6.89.54,8.27,1.84,2.05,1.94,2.51,4.64,2.26,6.53-.09.69-.34,1.35-.71,1.93-.58.9-5.8,8.9-10.14,12.63-2.08,1.79-4.37,2.45-6.59,2.45-3.35,0-6.53-1.52-8.55-2.99-.69-.35-2.5-1.26-5.19-2.49l-8.28,36.24c-.45,2.17-2.38,4.82-8.88,5.54-1.35.15-2.84.21-4.36.21-7.57,0-16.34-1.54-16.78-1.62-1.34-.24-2.51-1.04-3.21-2.2-1.07-1.76-3.36-6.27-1.38-10.07.48-.91,1.67-3.21,9.31-5.64,2.65-7.38,5.36-15.42,5.66-17.08.22-2.63,2.23-18.83,2.81-23.5-.69-2.26-.91-4.3-1.07-5.76-.05-.48-.1-.98-.15-1.22-.25-1.31-.65-3.76-1.22-7.51-.42-2.8-2.07-5.27-4.52-6.78-7.56-4.67-10.39-4.55-10.7-4.52-3.26.32-6.67-.63-10.1-2.83-2.55-1.63-5.67-1.96-8.58-.9-7.69,2.81-19.51,5.71-22.29,6-6.09.63-9.85-6.65-10.87-8.89-.08-.18-.15-.37-.21-.57-.53-1.72-1.58-3.81-2.15-4.29-1.81-1.19-2.99-2.98-3.26-4.99-.34-2.5.78-4.43,1.46-5.35.93-1.51,4.93-7.64,9.68-10.22.66-.36.81-2.58.63-3.6-.26-1.51.22-3.05,1.3-4.14,10.49-10.6,13.12-11.42,14.45-11.66.36-.16,1.01-.61,1.69-1.16.11-4.64,2.92-8.91,6.15-11.43,3.72-2.9,6.5-2.14,7.83-1.43,1.94,1.04,3.03,3.15,2.85,5.5,0,.22.04.53.14.91,2.21-2.14,4.87-3.57,7.84-2.84,3.59.88,5.79,4.28,7.03,7.14l6.05-.12c5.48-4.86,25.82-21.21,50.87-20.55,5.05-3.59,11.81-9.4,13.15-12.82,3.47-8.82,36.54-34.32,63.93-32.24,27.04,2.05,52.19,38.62,53.25,40.17.33.47,33.93,49.41,42.04,61.73,5.3,8.05,12.6,12.78,16.48,14.88.98.53,1.99.83,3.18.96,3.73.41,10.8,1.1,16.3,1.15,4.46.04,7.55,1.47,9.18,4.26,1.52,2.59,1.14,5.59.25,7.69-.8,3.29-4.14,8.06-12.99,7.99-.64,0-1.39.02-2.23.05-9.81.32-32.82,1.06-61.23-33.13-7.81-9.4-14.94-18.12-21.2-25.92-2.2-2.75-5.61-4.08-9.09-3.59-3.51.5-6.41,2.75-7.76,6.02-1.12,2.66-.51,13.37,3.35,31.32.85,3.93.44,7.93-1.17,11.56-.33.74-.73,2.19-1.16,3.73-1.93,6.94-5.53,19.86-18.83,30.8ZM554.38,540.65c5.95-3.16,12.03-6.38,20.39-8.43-.45,3.65-1,7.28-1.64,10.88-5.29,1.73-9.62,4.02-14.06,6.38-9.8,5.2-19.94,10.58-40.02,10.58s-30.22-5.38-40.02-10.58c-9.12-4.84-17.74-9.42-35.33-9.42s-26.21,4.57-35.33,9.42c-9.8,5.2-19.94,10.58-40.02,10.58s-30.22-5.38-40.02-10.58c-9.12-4.84-17.74-9.42-35.33-9.42s-26.21,4.57-35.33,9.42c-9.8,5.2-19.94,10.58-40.02,10.58s-30.22-5.38-40.02-10.58c-4.44-2.36-8.77-4.64-14.06-6.37-.64-3.61-1.19-7.24-1.64-10.88,8.35,2.05,14.44,5.26,20.4,8.42,9.12,4.84,17.74,9.42,35.33,9.42s26.21-4.57,35.33-9.42c9.8-5.2,19.94-10.58,40.02-10.58s30.22,5.38,40.02,10.58c9.12,4.84,17.74,9.42,35.33,9.42s26.21-4.57,35.33-9.42c9.8-5.2,19.94-10.58,40.02-10.58s30.22,5.38,40.02,10.58c9.12,4.84,17.74,9.42,35.33,9.42s26.21-4.57,35.33-9.42ZM370.3,666.28h12.94l-1,7.02h-19.82v-49.53h19.72v7.09h-11.85v12.79h11.23v7.02h-11.23v15.6ZM301.22,623.78h-11.36v49.53h7.88v-20.36h3.04c9.68,0,12.68-5.43,12.68-13.6v-2.92c0-8.76-4.13-12.64-12.24-12.64ZM305.65,639.09c0,4.83-.84,7.62-5.75,7.62h-2.16v-16.62h2.86c4.38,0,5.05,2.97,5.05,6.57v2.43ZM452.75,660.34c0,7.03-2.54,13.68-12.07,13.68s-11.75-5.84-11.75-12.36v-2.94h7.88v3.06c0,3.69,1.14,5.74,4.13,5.74s3.86-2.82,3.86-6.04c0-5.32-1.18-6.97-6.66-11.17-5.5-4.21-8.43-6.9-8.43-14.23,0-6.53,2.04-13.12,11.25-13.11,9.43,0,10.88,6.53,10.88,11.9v2.65h-7.81v-2.44c0-3.45-.6-5.54-3.22-5.54s-3.23,2.16-3.23,5.44c0,3.5.68,5.21,5.17,8.4,7.64,5.48,9.98,8.66,9.98,16.95ZM559.07,582.05c-9.8,5.2-19.94,10.58-40.02,10.58s-30.22-5.38-40.02-10.58c-9.12-4.84-17.74-9.42-35.33-9.42s-26.21,4.57-35.33,9.42c-9.8,5.2-19.94,10.58-40.02,10.58s-30.22-5.38-40.02-10.58c-9.12-4.84-17.74-9.42-35.33-9.42s-26.21,4.57-35.33,9.42c-9.8,5.2-19.94,10.58-40.02,10.58s-30.22-5.38-40.02-10.58c-1.32-.7-2.63-1.39-3.95-2.07-1.6-4.27-3.07-8.57-4.38-12.92,4.85,1.82,8.97,4,13.02,6.15,9.12,4.84,17.74,9.42,35.33,9.42s26.21-4.57,35.33-9.42c9.8-5.2,19.94-10.58,40.02-10.58s30.22,5.38,40.02,10.58c9.12,4.84,17.74,9.42,35.33,9.42s26.21-4.57,35.33-9.42c9.8-5.2,19.94-10.58,40.02-10.58s30.22,5.38,40.02,10.58c9.12,4.84,17.74,9.42,35.33,9.42s26.21-4.57,35.33-9.42c4.06-2.15,8.17-4.33,13.02-6.15-1.32,4.35-2.79,8.66-4.39,12.93-1.32.67-2.63,1.36-3.94,2.06ZM417.51,660.34c0,7.03-2.54,13.68-12.07,13.68s-11.75-5.84-11.75-12.36v-2.94h7.88v3.06c0,3.69,1.14,5.74,4.13,5.74s3.86-2.82,3.86-6.04c0-5.32-1.18-6.97-6.66-11.17-5.5-4.21-8.43-6.9-8.43-14.23,0-6.53,2.04-13.12,11.25-13.11,9.43,0,10.88,6.53,10.88,11.9v2.65h-7.81v-2.44c0-3.45-.6-5.54-3.22-5.54s-3.23,2.16-3.23,5.44c0,3.5.68,5.21,5.17,8.4,7.64,5.48,9.98,8.66,9.98,16.95ZM336.63,623.78h-10.91v49.53h7.88v-22.15h1.83c4.57,0,5.37,1.38,5.37,7.42,0,3.6-.14,11.73.54,14.72h7.61c-.54-3-.47-11.05-.47-15.22,0-6.72-1.7-8.8-4.68-10.16,1.98-.79,5.2-2.72,5.2-10.33v-1.89c0-8.92-4.59-11.93-12.36-11.93ZM341.1,637.94c0,5.39-1.53,6.91-5.7,6.91h-1.81v-14.77h2.23c4.46,0,5.28,2.33,5.28,6.16v1.7ZM161.31,526.64c0-.09-.01-.19-.02-.28,0,.09.01.19.02.28ZM161.92,532.2s0,.02,0,.03c0,0,0,0,0,0,0,0,0-.02,0-.03ZM163.57,543.11s.02.08.02.12c0-.04-.02-.08-.02-.12,0,0,0,0,0,0ZM160.35,509.6s0,.02,0,.03c0-.01,0-.02,0-.03,0,0,0,0,0,0ZM169.27,566.95s.02.07.03.11c0,0,0,0,0,0-.01-.04-.02-.07-.03-.11ZM173.68,579.98s.03.07.04.1c-.01-.03-.03-.07-.04-.1,0,0,0,0,0,0Z"/></svg>